<?xml version="1.0" encoding="utf-8" standalone="no"?>
<!DOCTYPE svg PUBLIC "-//W3C//DTD SVG 1.1//EN"
  "http://www.w3.org/Graphics/SVG/1.1/DTD/svg11.dtd">
<svg height="175.238966pt" version="1.1" viewBox="0 0 114.9025 175.238966" width="114.9025pt" xmlns="http://www.w3.org/2000/svg" xmlns:xlink="http://www.w3.org/1999/xlink">
 <metadata>
  <rdf:RDF xmlns:cc="http://creativecommons.org/ns#" xmlns:dc="http://purl.org/dc/elements/1.1/" xmlns:rdf="http://www.w3.org/1999/02/22-rdf-syntax-ns#">
   <cc:Work>
    <dc:type rdf:resource="http://purl.org/dc/dcmitype/StillImage"/>
    <dc:date>2021-11-02T12:05:14.473795</dc:date>
    <dc:format>image/svg+xml</dc:format>
    <dc:creator>
     <cc:Agent>
      <dc:title>Matplotlib v3.4.3, https://matplotlib.org/</dc:title>
     </cc:Agent>
    </dc:creator>
   </cc:Work>
  </rdf:RDF>
 </metadata>
 <defs>
  <style type="text/css">*{stroke-linecap:butt;stroke-linejoin:round;}</style>
 </defs>
 <g id="figure_1">
  <g id="patch_1">
   <path d="M 0 175.238966 
L 114.9025 175.238966 
L 114.9025 0 
L 0 0 
z
" style="fill:#ffffff;"/>
  </g>
  <g id="axes_1">
   <g id="patch_2">
    <path d="M 37.9525 118.789375 
L 107.7025 118.789375 
L 107.7025 10.069375 
L 37.9525 10.069375 
z
" style="fill:#ffffff;"/>
   </g>
   <g id="matplotlib.axis_1">
    <g id="xtick_1">
     <g id="line2d_1">
      <defs>
       <path d="M 0 0 
L 0 3 
" id="m30adeb0397" style="stroke:#262626;"/>
      </defs>
      <g>
       <use style="fill:#262626;stroke:#262626;" x="55.39" xlink:href="#m30adeb0397" y="118.789375"/>
      </g>
     </g>
     <g id="text_1">
      <!-- Not Repetitive -->
      <g style="fill:#262626;" transform="translate(21.816561 166.967118)rotate(-50)scale(0.08 -0.08)">
       <defs>
        <path d="M 488 4591 
L 1222 4591 
L 3541 872 
L 3541 4591 
L 4131 4591 
L 4131 0 
L 3434 0 
L 1081 3716 
L 1081 0 
L 488 0 
L 488 4591 
z
M 2269 4591 
L 2269 4591 
z
" id="Helvetica-4e" transform="scale(0.015625)"/>
        <path d="M 1741 363 
Q 2300 363 2508 786 
Q 2716 1209 2716 1728 
Q 2716 2197 2566 2491 
Q 2328 2953 1747 2953 
Q 1231 2953 997 2559 
Q 763 2166 763 1609 
Q 763 1075 997 719 
Q 1231 363 1741 363 
z
M 1763 3444 
Q 2409 3444 2856 3012 
Q 3303 2581 3303 1744 
Q 3303 934 2909 406 
Q 2516 -122 1688 -122 
Q 997 -122 590 345 
Q 184 813 184 1600 
Q 184 2444 612 2944 
Q 1041 3444 1763 3444 
z
M 1744 3428 
L 1744 3428 
z
" id="Helvetica-6f" transform="scale(0.015625)"/>
        <path d="M 525 4281 
L 1094 4281 
L 1094 3347 
L 1628 3347 
L 1628 2888 
L 1094 2888 
L 1094 703 
Q 1094 528 1213 469 
Q 1278 434 1431 434 
Q 1472 434 1519 436 
Q 1566 438 1628 444 
L 1628 0 
Q 1531 -28 1426 -40 
Q 1322 -53 1200 -53 
Q 806 -53 665 148 
Q 525 350 525 672 
L 525 2888 
L 72 2888 
L 72 3347 
L 525 3347 
L 525 4281 
z
" id="Helvetica-74" transform="scale(0.015625)"/>
        <path id="Helvetica-20" transform="scale(0.015625)"/>
        <path d="M 2622 2488 
Q 3059 2488 3314 2663 
Q 3569 2838 3569 3294 
Q 3569 3784 3213 3963 
Q 3022 4056 2703 4056 
L 1184 4056 
L 1184 2488 
L 2622 2488 
z
M 563 4591 
L 2688 4591 
Q 3213 4591 3553 4438 
Q 4200 4144 4200 3353 
Q 4200 2941 4029 2678 
Q 3859 2416 3553 2256 
Q 3822 2147 3958 1969 
Q 4094 1791 4109 1391 
L 4131 775 
Q 4141 513 4175 384 
Q 4231 166 4375 103 
L 4375 0 
L 3613 0 
Q 3581 59 3562 153 
Q 3544 247 3531 516 
L 3494 1281 
Q 3472 1731 3159 1884 
Q 2981 1969 2600 1969 
L 1184 1969 
L 1184 0 
L 563 0 
L 563 4591 
z
" id="Helvetica-52" transform="scale(0.015625)"/>
        <path d="M 1806 3422 
Q 2163 3422 2497 3255 
Q 2831 3088 3006 2822 
Q 3175 2569 3231 2231 
Q 3281 2000 3281 1494 
L 828 1494 
Q 844 984 1069 676 
Q 1294 369 1766 369 
Q 2206 369 2469 659 
Q 2619 828 2681 1050 
L 3234 1050 
Q 3213 866 3089 639 
Q 2966 413 2813 269 
Q 2556 19 2178 -69 
Q 1975 -119 1719 -119 
Q 1094 -119 659 336 
Q 225 791 225 1609 
Q 225 2416 662 2919 
Q 1100 3422 1806 3422 
z
M 2703 1941 
Q 2669 2306 2544 2525 
Q 2313 2931 1772 2931 
Q 1384 2931 1121 2651 
Q 859 2372 844 1941 
L 2703 1941 
z
M 1753 3428 
L 1753 3428 
z
" id="Helvetica-65" transform="scale(0.015625)"/>
        <path d="M 1825 378 
Q 2219 378 2480 708 
Q 2741 1038 2741 1694 
Q 2741 2094 2625 2381 
Q 2406 2934 1825 2934 
Q 1241 2934 1025 2350 
Q 909 2038 909 1556 
Q 909 1169 1025 897 
Q 1244 378 1825 378 
z
M 369 3331 
L 916 3331 
L 916 2888 
Q 1084 3116 1284 3241 
Q 1569 3428 1953 3428 
Q 2522 3428 2919 2992 
Q 3316 2556 3316 1747 
Q 3316 653 2744 184 
Q 2381 -113 1900 -113 
Q 1522 -113 1266 53 
Q 1116 147 931 375 
L 931 -1334 
L 369 -1334 
L 369 3331 
z
" id="Helvetica-70" transform="scale(0.015625)"/>
        <path d="M 413 3331 
L 984 3331 
L 984 0 
L 413 0 
L 413 3331 
z
M 413 4591 
L 984 4591 
L 984 3953 
L 413 3953 
L 413 4591 
z
" id="Helvetica-69" transform="scale(0.015625)"/>
        <path d="M 688 3347 
L 1581 622 
L 2516 3347 
L 3131 3347 
L 1869 0 
L 1269 0 
L 34 3347 
L 688 3347 
z
" id="Helvetica-76" transform="scale(0.015625)"/>
       </defs>
       <use xlink:href="#Helvetica-4e"/>
       <use x="72.216797" xlink:href="#Helvetica-6f"/>
       <use x="127.832031" xlink:href="#Helvetica-74"/>
       <use x="155.615234" xlink:href="#Helvetica-20"/>
       <use x="183.398438" xlink:href="#Helvetica-52"/>
       <use x="255.615234" xlink:href="#Helvetica-65"/>
       <use x="311.230469" xlink:href="#Helvetica-70"/>
       <use x="366.845703" xlink:href="#Helvetica-65"/>
       <use x="422.460938" xlink:href="#Helvetica-74"/>
       <use x="450.244141" xlink:href="#Helvetica-69"/>
       <use x="472.460938" xlink:href="#Helvetica-74"/>
       <use x="500.244141" xlink:href="#Helvetica-69"/>
       <use x="522.460938" xlink:href="#Helvetica-76"/>
       <use x="572.460938" xlink:href="#Helvetica-65"/>
      </g>
     </g>
    </g>
    <g id="xtick_2">
     <g id="line2d_2">
      <g>
       <use style="fill:#262626;stroke:#262626;" x="90.265" xlink:href="#m30adeb0397" y="118.789375"/>
      </g>
     </g>
     <g id="text_2">
      <!-- Repetitive -->
      <g style="fill:#262626;" transform="translate(66.122059 155.728288)rotate(-50)scale(0.08 -0.08)">
       <use xlink:href="#Helvetica-52"/>
       <use x="72.216797" xlink:href="#Helvetica-65"/>
       <use x="127.832031" xlink:href="#Helvetica-70"/>
       <use x="183.447266" xlink:href="#Helvetica-65"/>
       <use x="239.0625" xlink:href="#Helvetica-74"/>
       <use x="266.845703" xlink:href="#Helvetica-69"/>
       <use x="289.0625" xlink:href="#Helvetica-74"/>
       <use x="316.845703" xlink:href="#Helvetica-69"/>
       <use x="339.0625" xlink:href="#Helvetica-76"/>
       <use x="389.0625" xlink:href="#Helvetica-65"/>
      </g>
     </g>
    </g>
   </g>
   <g id="matplotlib.axis_2">
    <g id="ytick_1">
     <g id="line2d_3">
      <defs>
       <path d="M 0 0 
L -3 0 
" id="m28178ed387" style="stroke:#262626;"/>
      </defs>
      <g>
       <use style="fill:#262626;stroke:#262626;" x="37.9525" xlink:href="#m28178ed387" y="102.204968"/>
      </g>
     </g>
     <g id="text_3">
      <!-- 0 -->
      <g style="fill:#262626;" transform="translate(27.50375 105.074343)scale(0.08 -0.08)">
       <defs>
        <path d="M 1731 4475 
Q 2600 4475 2988 3759 
Q 3288 3206 3288 2244 
Q 3288 1331 3016 734 
Q 2622 -122 1728 -122 
Q 922 -122 528 578 
Q 200 1163 200 2147 
Q 200 2909 397 3456 
Q 766 4475 1731 4475 
z
M 1725 391 
Q 2163 391 2422 778 
Q 2681 1166 2681 2222 
Q 2681 2984 2493 3476 
Q 2306 3969 1766 3969 
Q 1269 3969 1039 3501 
Q 809 3034 809 2125 
Q 809 1441 956 1025 
Q 1181 391 1725 391 
z
" id="Helvetica-30" transform="scale(0.015625)"/>
       </defs>
       <use xlink:href="#Helvetica-30"/>
      </g>
     </g>
    </g>
    <g id="ytick_2">
     <g id="line2d_4">
      <g>
       <use style="fill:#262626;stroke:#262626;" x="37.9525" xlink:href="#m28178ed387" y="83.77785"/>
      </g>
     </g>
     <g id="text_4">
      <!-- 20 -->
      <g style="fill:#262626;" transform="translate(23.055 86.647225)scale(0.08 -0.08)">
       <defs>
        <path d="M 200 0 
Q 231 578 439 1006 
Q 647 1434 1250 1784 
L 1850 2131 
Q 2253 2366 2416 2531 
Q 2672 2791 2672 3125 
Q 2672 3516 2437 3745 
Q 2203 3975 1813 3975 
Q 1234 3975 1013 3538 
Q 894 3303 881 2888 
L 309 2888 
Q 319 3472 525 3841 
Q 891 4491 1816 4491 
Q 2584 4491 2939 4075 
Q 3294 3659 3294 3150 
Q 3294 2613 2916 2231 
Q 2697 2009 2131 1694 
L 1703 1456 
Q 1397 1288 1222 1134 
Q 909 863 828 531 
L 3272 531 
L 3272 0 
L 200 0 
z
" id="Helvetica-32" transform="scale(0.015625)"/>
       </defs>
       <use xlink:href="#Helvetica-32"/>
       <use x="55.615234" xlink:href="#Helvetica-30"/>
      </g>
     </g>
    </g>
    <g id="ytick_3">
     <g id="line2d_5">
      <g>
       <use style="fill:#262626;stroke:#262626;" x="37.9525" xlink:href="#m28178ed387" y="65.350731"/>
      </g>
     </g>
     <g id="text_5">
      <!-- 40 -->
      <g style="fill:#262626;" transform="translate(23.055 68.220106)scale(0.08 -0.08)">
       <defs>
        <path d="M 2116 1584 
L 2116 3613 
L 681 1584 
L 2116 1584 
z
M 2125 0 
L 2125 1094 
L 163 1094 
L 163 1644 
L 2213 4488 
L 2688 4488 
L 2688 1584 
L 3347 1584 
L 3347 1094 
L 2688 1094 
L 2688 0 
L 2125 0 
z
" id="Helvetica-34" transform="scale(0.015625)"/>
       </defs>
       <use xlink:href="#Helvetica-34"/>
       <use x="55.615234" xlink:href="#Helvetica-30"/>
      </g>
     </g>
    </g>
    <g id="ytick_4">
     <g id="line2d_6">
      <g>
       <use style="fill:#262626;stroke:#262626;" x="37.9525" xlink:href="#m28178ed387" y="46.923612"/>
      </g>
     </g>
     <g id="text_6">
      <!-- 60 -->
      <g style="fill:#262626;" transform="translate(23.055 49.792987)scale(0.08 -0.08)">
       <defs>
        <path d="M 1872 4494 
Q 2622 4494 2917 4105 
Q 3213 3716 3213 3303 
L 2656 3303 
Q 2606 3569 2497 3719 
Q 2294 4000 1881 4000 
Q 1409 4000 1131 3564 
Q 853 3128 822 2316 
Q 1016 2600 1309 2741 
Q 1578 2866 1909 2866 
Q 2472 2866 2890 2506 
Q 3309 2147 3309 1434 
Q 3309 825 2912 354 
Q 2516 -116 1781 -116 
Q 1153 -116 697 361 
Q 241 838 241 1966 
Q 241 2800 444 3381 
Q 834 4494 1872 4494 
z
M 1831 384 
Q 2275 384 2495 682 
Q 2716 981 2716 1388 
Q 2716 1731 2519 2042 
Q 2322 2353 1803 2353 
Q 1441 2353 1167 2112 
Q 894 1872 894 1388 
Q 894 963 1142 673 
Q 1391 384 1831 384 
z
" id="Helvetica-36" transform="scale(0.015625)"/>
       </defs>
       <use xlink:href="#Helvetica-36"/>
       <use x="55.615234" xlink:href="#Helvetica-30"/>
      </g>
     </g>
    </g>
    <g id="ytick_5">
     <g id="line2d_7">
      <g>
       <use style="fill:#262626;stroke:#262626;" x="37.9525" xlink:href="#m28178ed387" y="28.496494"/>
      </g>
     </g>
     <g id="text_7">
      <!-- 80 -->
      <g style="fill:#262626;" transform="translate(23.055 31.365869)scale(0.08 -0.08)">
       <defs>
        <path d="M 1741 2600 
Q 2113 2600 2322 2808 
Q 2531 3016 2531 3303 
Q 2531 3553 2331 3762 
Q 2131 3972 1722 3972 
Q 1316 3972 1134 3762 
Q 953 3553 953 3272 
Q 953 2956 1187 2778 
Q 1422 2600 1741 2600 
z
M 1775 384 
Q 2166 384 2423 595 
Q 2681 806 2681 1225 
Q 2681 1659 2415 1884 
Q 2150 2109 1734 2109 
Q 1331 2109 1076 1879 
Q 822 1650 822 1244 
Q 822 894 1055 639 
Q 1288 384 1775 384 
z
M 975 2384 
Q 741 2484 609 2619 
Q 363 2869 363 3269 
Q 363 3769 725 4128 
Q 1088 4488 1753 4488 
Q 2397 4488 2762 4148 
Q 3128 3809 3128 3356 
Q 3128 2938 2916 2678 
Q 2797 2531 2547 2391 
Q 2825 2263 2984 2097 
Q 3281 1784 3281 1284 
Q 3281 694 2884 283 
Q 2488 -128 1763 -128 
Q 1109 -128 657 226 
Q 206 581 206 1256 
Q 206 1653 400 1942 
Q 594 2231 975 2384 
z
" id="Helvetica-38" transform="scale(0.015625)"/>
       </defs>
       <use xlink:href="#Helvetica-38"/>
       <use x="55.615234" xlink:href="#Helvetica-30"/>
      </g>
     </g>
    </g>
    <g id="ytick_6">
     <g id="line2d_8">
      <g>
       <use style="fill:#262626;stroke:#262626;" x="37.9525" xlink:href="#m28178ed387" y="10.069375"/>
      </g>
     </g>
     <g id="text_8">
      <!-- 100 -->
      <g style="fill:#262626;" transform="translate(18.60625 12.93875)scale(0.08 -0.08)">
       <defs>
        <path d="M 613 3169 
L 613 3600 
Q 1222 3659 1462 3798 
Q 1703 3938 1822 4456 
L 2266 4456 
L 2266 0 
L 1666 0 
L 1666 3169 
L 613 3169 
z
" id="Helvetica-31" transform="scale(0.015625)"/>
       </defs>
       <use xlink:href="#Helvetica-31"/>
       <use x="55.615234" xlink:href="#Helvetica-30"/>
       <use x="111.230469" xlink:href="#Helvetica-30"/>
      </g>
     </g>
    </g>
    <g id="text_9">
     <!-- Total motifs -->
     <g style="fill:#262626;" transform="translate(12.93875 85.1)rotate(-90)scale(0.08 -0.08)">
      <defs>
       <path d="M 3828 4591 
L 3828 4044 
L 2281 4044 
L 2281 0 
L 1650 0 
L 1650 4044 
L 103 4044 
L 103 4591 
L 3828 4591 
z
" id="Helvetica-54" transform="scale(0.015625)"/>
       <path d="M 844 891 
Q 844 647 1022 506 
Q 1200 366 1444 366 
Q 1741 366 2019 503 
Q 2488 731 2488 1250 
L 2488 1703 
Q 2384 1638 2221 1594 
Q 2059 1550 1903 1531 
L 1563 1488 
Q 1256 1447 1103 1359 
Q 844 1213 844 891 
z
M 2206 2028 
Q 2400 2053 2466 2191 
Q 2503 2266 2503 2406 
Q 2503 2694 2298 2823 
Q 2094 2953 1713 2953 
Q 1272 2953 1088 2716 
Q 984 2584 953 2325 
L 428 2325 
Q 444 2944 830 3186 
Q 1216 3428 1725 3428 
Q 2316 3428 2684 3203 
Q 3050 2978 3050 2503 
L 3050 575 
Q 3050 488 3086 434 
Q 3122 381 3238 381 
Q 3275 381 3322 386 
Q 3369 391 3422 400 
L 3422 -16 
Q 3291 -53 3222 -62 
Q 3153 -72 3034 -72 
Q 2744 -72 2613 134 
Q 2544 244 2516 444 
Q 2344 219 2022 53 
Q 1700 -113 1313 -113 
Q 847 -113 551 170 
Q 256 453 256 878 
Q 256 1344 547 1600 
Q 838 1856 1309 1916 
L 2206 2028 
z
M 1741 3428 
L 1741 3428 
z
" id="Helvetica-61" transform="scale(0.015625)"/>
       <path d="M 428 4591 
L 991 4591 
L 991 0 
L 428 0 
L 428 4591 
z
" id="Helvetica-6c" transform="scale(0.015625)"/>
       <path d="M 413 3347 
L 969 3347 
L 969 2872 
Q 1169 3119 1331 3231 
Q 1609 3422 1963 3422 
Q 2363 3422 2606 3225 
Q 2744 3113 2856 2894 
Q 3044 3163 3297 3292 
Q 3550 3422 3866 3422 
Q 4541 3422 4784 2934 
Q 4916 2672 4916 2228 
L 4916 0 
L 4331 0 
L 4331 2325 
Q 4331 2659 4164 2784 
Q 3997 2909 3756 2909 
Q 3425 2909 3186 2687 
Q 2947 2466 2947 1947 
L 2947 0 
L 2375 0 
L 2375 2184 
Q 2375 2525 2294 2681 
Q 2166 2916 1816 2916 
Q 1497 2916 1236 2669 
Q 975 2422 975 1775 
L 975 0 
L 413 0 
L 413 3347 
z
" id="Helvetica-6d" transform="scale(0.015625)"/>
       <path d="M 553 3856 
Q 566 4206 675 4369 
Q 872 4656 1434 4656 
Q 1488 4656 1544 4653 
Q 1600 4650 1672 4644 
L 1672 4131 
Q 1584 4138 1545 4139 
Q 1506 4141 1472 4141 
Q 1216 4141 1166 4008 
Q 1116 3875 1116 3331 
L 1672 3331 
L 1672 2888 
L 1109 2888 
L 1109 0 
L 553 0 
L 553 2888 
L 88 2888 
L 88 3331 
L 553 3331 
L 553 3856 
z
" id="Helvetica-66" transform="scale(0.015625)"/>
       <path d="M 747 1050 
Q 772 769 888 619 
Q 1100 347 1625 347 
Q 1938 347 2175 483 
Q 2413 619 2413 903 
Q 2413 1119 2222 1231 
Q 2100 1300 1741 1391 
L 1294 1503 
Q 866 1609 663 1741 
Q 300 1969 300 2372 
Q 300 2847 642 3140 
Q 984 3434 1563 3434 
Q 2319 3434 2653 2991 
Q 2863 2709 2856 2384 
L 2325 2384 
Q 2309 2575 2191 2731 
Q 1997 2953 1519 2953 
Q 1200 2953 1036 2831 
Q 872 2709 872 2509 
Q 872 2291 1088 2159 
Q 1213 2081 1456 2022 
L 1828 1931 
Q 2434 1784 2641 1647 
Q 2969 1431 2969 969 
Q 2969 522 2630 197 
Q 2291 -128 1597 -128 
Q 850 -128 539 211 
Q 228 550 206 1050 
L 747 1050 
z
M 1578 3428 
L 1578 3428 
z
" id="Helvetica-73" transform="scale(0.015625)"/>
      </defs>
      <use xlink:href="#Helvetica-54"/>
      <use x="61.083984" xlink:href="#Helvetica-6f"/>
      <use x="116.699219" xlink:href="#Helvetica-74"/>
      <use x="144.482422" xlink:href="#Helvetica-61"/>
      <use x="200.097656" xlink:href="#Helvetica-6c"/>
      <use x="222.314453" xlink:href="#Helvetica-20"/>
      <use x="250.097656" xlink:href="#Helvetica-6d"/>
      <use x="333.398438" xlink:href="#Helvetica-6f"/>
      <use x="389.013672" xlink:href="#Helvetica-74"/>
      <use x="416.796875" xlink:href="#Helvetica-69"/>
      <use x="439.013672" xlink:href="#Helvetica-66"/>
      <use x="466.796875" xlink:href="#Helvetica-73"/>
     </g>
    </g>
   </g>
   <g id="patch_3">
    <path clip-path="url(#p439ee2ebb3)" d="M 41.44 102.204968 
L 69.34 102.204968 
L 69.34 96.676833 
L 41.44 96.676833 
L 41.44 102.204968 
z
" style="fill:#808080;fill-opacity:0.5;stroke:#808080;stroke-linejoin:miter;stroke-width:1.2;"/>
   </g>
   <g id="patch_4">
    <path clip-path="url(#p439ee2ebb3)" d="M 76.315 101.283612 
L 104.215 101.283612 
L 104.215 91.148697 
L 76.315 91.148697 
L 76.315 101.283612 
z
" style="fill:#95a3c3;fill-opacity:0.5;stroke:#95a3c3;stroke-linejoin:miter;stroke-width:1.2;"/>
   </g>
   <g id="line2d_9">
    <path clip-path="url(#p439ee2ebb3)" d="M 55.39 102.204968 
L 55.39 102.204968 
" style="fill:none;stroke:#808080;stroke-linecap:round;stroke-width:1.2;"/>
   </g>
   <g id="line2d_10">
    <path clip-path="url(#p439ee2ebb3)" d="M 55.39 96.676833 
L 55.39 88.384629 
" style="fill:none;stroke:#808080;stroke-linecap:round;stroke-width:1.2;"/>
   </g>
   <g id="line2d_11">
    <defs>
     <path d="M 0 2.5 
C 0.663008 2.5 1.29895 2.236584 1.767767 1.767767 
C 2.236584 1.29895 2.5 0.663008 2.5 0 
C 2.5 -0.663008 2.236584 -1.29895 1.767767 -1.767767 
C 1.29895 -2.236584 0.663008 -2.5 0 -2.5 
C -0.663008 -2.5 -1.29895 -2.236584 -1.767767 -1.767767 
C -2.236584 -1.29895 -2.5 -0.663008 -2.5 0 
C -2.5 0.663008 -2.236584 1.29895 -1.767767 1.767767 
C -1.29895 2.236584 -0.663008 2.5 0 2.5 
z
" id="m02e9cc5a09" style="stroke:#808080;stroke-opacity:0.5;"/>
    </defs>
    <g clip-path="url(#p439ee2ebb3)">
     <use style="fill:#808080;fill-opacity:0.5;stroke:#808080;stroke-opacity:0.5;" x="55.39" xlink:href="#m02e9cc5a09" y="87.463273"/>
     <use style="fill:#808080;fill-opacity:0.5;stroke:#808080;stroke-opacity:0.5;" x="55.39" xlink:href="#m02e9cc5a09" y="87.463273"/>
     <use style="fill:#808080;fill-opacity:0.5;stroke:#808080;stroke-opacity:0.5;" x="55.39" xlink:href="#m02e9cc5a09" y="82.856494"/>
     <use style="fill:#808080;fill-opacity:0.5;stroke:#808080;stroke-opacity:0.5;" x="55.39" xlink:href="#m02e9cc5a09" y="83.77785"/>
     <use style="fill:#808080;fill-opacity:0.5;stroke:#808080;stroke-opacity:0.5;" x="55.39" xlink:href="#m02e9cc5a09" y="83.77785"/>
     <use style="fill:#808080;fill-opacity:0.5;stroke:#808080;stroke-opacity:0.5;" x="55.39" xlink:href="#m02e9cc5a09" y="87.463273"/>
     <use style="fill:#808080;fill-opacity:0.5;stroke:#808080;stroke-opacity:0.5;" x="55.39" xlink:href="#m02e9cc5a09" y="76.407002"/>
     <use style="fill:#808080;fill-opacity:0.5;stroke:#808080;stroke-opacity:0.5;" x="55.39" xlink:href="#m02e9cc5a09" y="80.092426"/>
     <use style="fill:#808080;fill-opacity:0.5;stroke:#808080;stroke-opacity:0.5;" x="55.39" xlink:href="#m02e9cc5a09" y="86.541917"/>
     <use style="fill:#808080;fill-opacity:0.5;stroke:#808080;stroke-opacity:0.5;" x="55.39" xlink:href="#m02e9cc5a09" y="87.463273"/>
     <use style="fill:#808080;fill-opacity:0.5;stroke:#808080;stroke-opacity:0.5;" x="55.39" xlink:href="#m02e9cc5a09" y="83.77785"/>
     <use style="fill:#808080;fill-opacity:0.5;stroke:#808080;stroke-opacity:0.5;" x="55.39" xlink:href="#m02e9cc5a09" y="81.935138"/>
     <use style="fill:#808080;fill-opacity:0.5;stroke:#808080;stroke-opacity:0.5;" x="55.39" xlink:href="#m02e9cc5a09" y="85.620561"/>
     <use style="fill:#808080;fill-opacity:0.5;stroke:#808080;stroke-opacity:0.5;" x="55.39" xlink:href="#m02e9cc5a09" y="83.77785"/>
     <use style="fill:#808080;fill-opacity:0.5;stroke:#808080;stroke-opacity:0.5;" x="55.39" xlink:href="#m02e9cc5a09" y="86.541917"/>
     <use style="fill:#808080;fill-opacity:0.5;stroke:#808080;stroke-opacity:0.5;" x="55.39" xlink:href="#m02e9cc5a09" y="80.092426"/>
     <use style="fill:#808080;fill-opacity:0.5;stroke:#808080;stroke-opacity:0.5;" x="55.39" xlink:href="#m02e9cc5a09" y="83.77785"/>
     <use style="fill:#808080;fill-opacity:0.5;stroke:#808080;stroke-opacity:0.5;" x="55.39" xlink:href="#m02e9cc5a09" y="86.541917"/>
     <use style="fill:#808080;fill-opacity:0.5;stroke:#808080;stroke-opacity:0.5;" x="55.39" xlink:href="#m02e9cc5a09" y="81.013782"/>
     <use style="fill:#808080;fill-opacity:0.5;stroke:#808080;stroke-opacity:0.5;" x="55.39" xlink:href="#m02e9cc5a09" y="83.77785"/>
     <use style="fill:#808080;fill-opacity:0.5;stroke:#808080;stroke-opacity:0.5;" x="55.39" xlink:href="#m02e9cc5a09" y="85.620561"/>
     <use style="fill:#808080;fill-opacity:0.5;stroke:#808080;stroke-opacity:0.5;" x="55.39" xlink:href="#m02e9cc5a09" y="84.699206"/>
     <use style="fill:#808080;fill-opacity:0.5;stroke:#808080;stroke-opacity:0.5;" x="55.39" xlink:href="#m02e9cc5a09" y="83.77785"/>
     <use style="fill:#808080;fill-opacity:0.5;stroke:#808080;stroke-opacity:0.5;" x="55.39" xlink:href="#m02e9cc5a09" y="85.620561"/>
     <use style="fill:#808080;fill-opacity:0.5;stroke:#808080;stroke-opacity:0.5;" x="55.39" xlink:href="#m02e9cc5a09" y="82.856494"/>
     <use style="fill:#808080;fill-opacity:0.5;stroke:#808080;stroke-opacity:0.5;" x="55.39" xlink:href="#m02e9cc5a09" y="86.541917"/>
     <use style="fill:#808080;fill-opacity:0.5;stroke:#808080;stroke-opacity:0.5;" x="55.39" xlink:href="#m02e9cc5a09" y="83.77785"/>
     <use style="fill:#808080;fill-opacity:0.5;stroke:#808080;stroke-opacity:0.5;" x="55.39" xlink:href="#m02e9cc5a09" y="75.485646"/>
     <use style="fill:#808080;fill-opacity:0.5;stroke:#808080;stroke-opacity:0.5;" x="55.39" xlink:href="#m02e9cc5a09" y="83.77785"/>
     <use style="fill:#808080;fill-opacity:0.5;stroke:#808080;stroke-opacity:0.5;" x="55.39" xlink:href="#m02e9cc5a09" y="81.935138"/>
     <use style="fill:#808080;fill-opacity:0.5;stroke:#808080;stroke-opacity:0.5;" x="55.39" xlink:href="#m02e9cc5a09" y="78.249714"/>
     <use style="fill:#808080;fill-opacity:0.5;stroke:#808080;stroke-opacity:0.5;" x="55.39" xlink:href="#m02e9cc5a09" y="83.77785"/>
     <use style="fill:#808080;fill-opacity:0.5;stroke:#808080;stroke-opacity:0.5;" x="55.39" xlink:href="#m02e9cc5a09" y="61.665307"/>
     <use style="fill:#808080;fill-opacity:0.5;stroke:#808080;stroke-opacity:0.5;" x="55.39" xlink:href="#m02e9cc5a09" y="83.77785"/>
     <use style="fill:#808080;fill-opacity:0.5;stroke:#808080;stroke-opacity:0.5;" x="55.39" xlink:href="#m02e9cc5a09" y="78.249714"/>
     <use style="fill:#808080;fill-opacity:0.5;stroke:#808080;stroke-opacity:0.5;" x="55.39" xlink:href="#m02e9cc5a09" y="82.856494"/>
     <use style="fill:#808080;fill-opacity:0.5;stroke:#808080;stroke-opacity:0.5;" x="55.39" xlink:href="#m02e9cc5a09" y="83.77785"/>
     <use style="fill:#808080;fill-opacity:0.5;stroke:#808080;stroke-opacity:0.5;" x="55.39" xlink:href="#m02e9cc5a09" y="84.699206"/>
     <use style="fill:#808080;fill-opacity:0.5;stroke:#808080;stroke-opacity:0.5;" x="55.39" xlink:href="#m02e9cc5a09" y="83.77785"/>
     <use style="fill:#808080;fill-opacity:0.5;stroke:#808080;stroke-opacity:0.5;" x="55.39" xlink:href="#m02e9cc5a09" y="81.013782"/>
     <use style="fill:#808080;fill-opacity:0.5;stroke:#808080;stroke-opacity:0.5;" x="55.39" xlink:href="#m02e9cc5a09" y="86.541917"/>
     <use style="fill:#808080;fill-opacity:0.5;stroke:#808080;stroke-opacity:0.5;" x="55.39" xlink:href="#m02e9cc5a09" y="87.463273"/>
     <use style="fill:#808080;fill-opacity:0.5;stroke:#808080;stroke-opacity:0.5;" x="55.39" xlink:href="#m02e9cc5a09" y="85.620561"/>
     <use style="fill:#808080;fill-opacity:0.5;stroke:#808080;stroke-opacity:0.5;" x="55.39" xlink:href="#m02e9cc5a09" y="81.935138"/>
     <use style="fill:#808080;fill-opacity:0.5;stroke:#808080;stroke-opacity:0.5;" x="55.39" xlink:href="#m02e9cc5a09" y="72.721578"/>
     <use style="fill:#808080;fill-opacity:0.5;stroke:#808080;stroke-opacity:0.5;" x="55.39" xlink:href="#m02e9cc5a09" y="79.17107"/>
     <use style="fill:#808080;fill-opacity:0.5;stroke:#808080;stroke-opacity:0.5;" x="55.39" xlink:href="#m02e9cc5a09" y="81.013782"/>
     <use style="fill:#808080;fill-opacity:0.5;stroke:#808080;stroke-opacity:0.5;" x="55.39" xlink:href="#m02e9cc5a09" y="84.699206"/>
     <use style="fill:#808080;fill-opacity:0.5;stroke:#808080;stroke-opacity:0.5;" x="55.39" xlink:href="#m02e9cc5a09" y="76.407002"/>
    </g>
   </g>
   <g id="line2d_12">
    <path clip-path="url(#p439ee2ebb3)" d="M 90.265 101.283612 
L 90.265 102.204968 
" style="fill:none;stroke:#95a3c3;stroke-linecap:round;stroke-width:1.2;"/>
   </g>
   <g id="line2d_13">
    <path clip-path="url(#p439ee2ebb3)" d="M 90.265 91.148697 
L 90.265 76.407002 
" style="fill:none;stroke:#95a3c3;stroke-linecap:round;stroke-width:1.2;"/>
   </g>
   <g id="line2d_14">
    <defs>
     <path d="M 0 2.5 
C 0.663008 2.5 1.29895 2.236584 1.767767 1.767767 
C 2.236584 1.29895 2.5 0.663008 2.5 0 
C 2.5 -0.663008 2.236584 -1.29895 1.767767 -1.767767 
C 1.29895 -2.236584 0.663008 -2.5 0 -2.5 
C -0.663008 -2.5 -1.29895 -2.236584 -1.767767 -1.767767 
C -2.236584 -1.29895 -2.5 -0.663008 -2.5 0 
C -2.5 0.663008 -2.236584 1.29895 -1.767767 1.767767 
C -1.29895 2.236584 -0.663008 2.5 0 2.5 
z
" id="m1cc2bea652" style="stroke:#95a3c3;stroke-opacity:0.5;"/>
    </defs>
    <g clip-path="url(#p439ee2ebb3)">
     <use style="fill:#95a3c3;fill-opacity:0.5;stroke:#95a3c3;stroke-opacity:0.5;" x="90.265" xlink:href="#m1cc2bea652" y="56.137172"/>
     <use style="fill:#95a3c3;fill-opacity:0.5;stroke:#95a3c3;stroke-opacity:0.5;" x="90.265" xlink:href="#m1cc2bea652" y="75.485646"/>
     <use style="fill:#95a3c3;fill-opacity:0.5;stroke:#95a3c3;stroke-opacity:0.5;" x="90.265" xlink:href="#m1cc2bea652" y="64.429375"/>
     <use style="fill:#95a3c3;fill-opacity:0.5;stroke:#95a3c3;stroke-opacity:0.5;" x="90.265" xlink:href="#m1cc2bea652" y="68.114799"/>
     <use style="fill:#95a3c3;fill-opacity:0.5;stroke:#95a3c3;stroke-opacity:0.5;" x="90.265" xlink:href="#m1cc2bea652" y="73.642934"/>
     <use style="fill:#95a3c3;fill-opacity:0.5;stroke:#95a3c3;stroke-opacity:0.5;" x="90.265" xlink:href="#m1cc2bea652" y="66.272087"/>
     <use style="fill:#95a3c3;fill-opacity:0.5;stroke:#95a3c3;stroke-opacity:0.5;" x="90.265" xlink:href="#m1cc2bea652" y="61.665307"/>
     <use style="fill:#95a3c3;fill-opacity:0.5;stroke:#95a3c3;stroke-opacity:0.5;" x="90.265" xlink:href="#m1cc2bea652" y="50.609036"/>
     <use style="fill:#95a3c3;fill-opacity:0.5;stroke:#95a3c3;stroke-opacity:0.5;" x="90.265" xlink:href="#m1cc2bea652" y="47.844968"/>
     <use style="fill:#95a3c3;fill-opacity:0.5;stroke:#95a3c3;stroke-opacity:0.5;" x="90.265" xlink:href="#m1cc2bea652" y="54.29446"/>
     <use style="fill:#95a3c3;fill-opacity:0.5;stroke:#95a3c3;stroke-opacity:0.5;" x="90.265" xlink:href="#m1cc2bea652" y="72.721578"/>
     <use style="fill:#95a3c3;fill-opacity:0.5;stroke:#95a3c3;stroke-opacity:0.5;" x="90.265" xlink:href="#m1cc2bea652" y="58.901239"/>
     <use style="fill:#95a3c3;fill-opacity:0.5;stroke:#95a3c3;stroke-opacity:0.5;" x="90.265" xlink:href="#m1cc2bea652" y="74.56429"/>
     <use style="fill:#95a3c3;fill-opacity:0.5;stroke:#95a3c3;stroke-opacity:0.5;" x="90.265" xlink:href="#m1cc2bea652" y="69.957511"/>
     <use style="fill:#95a3c3;fill-opacity:0.5;stroke:#95a3c3;stroke-opacity:0.5;" x="90.265" xlink:href="#m1cc2bea652" y="60.743951"/>
     <use style="fill:#95a3c3;fill-opacity:0.5;stroke:#95a3c3;stroke-opacity:0.5;" x="90.265" xlink:href="#m1cc2bea652" y="59.822595"/>
     <use style="fill:#95a3c3;fill-opacity:0.5;stroke:#95a3c3;stroke-opacity:0.5;" x="90.265" xlink:href="#m1cc2bea652" y="61.665307"/>
     <use style="fill:#95a3c3;fill-opacity:0.5;stroke:#95a3c3;stroke-opacity:0.5;" x="90.265" xlink:href="#m1cc2bea652" y="58.901239"/>
     <use style="fill:#95a3c3;fill-opacity:0.5;stroke:#95a3c3;stroke-opacity:0.5;" x="90.265" xlink:href="#m1cc2bea652" y="60.743951"/>
     <use style="fill:#95a3c3;fill-opacity:0.5;stroke:#95a3c3;stroke-opacity:0.5;" x="90.265" xlink:href="#m1cc2bea652" y="69.036155"/>
     <use style="fill:#95a3c3;fill-opacity:0.5;stroke:#95a3c3;stroke-opacity:0.5;" x="90.265" xlink:href="#m1cc2bea652" y="55.215816"/>
     <use style="fill:#95a3c3;fill-opacity:0.5;stroke:#95a3c3;stroke-opacity:0.5;" x="90.265" xlink:href="#m1cc2bea652" y="66.272087"/>
     <use style="fill:#95a3c3;fill-opacity:0.5;stroke:#95a3c3;stroke-opacity:0.5;" x="90.265" xlink:href="#m1cc2bea652" y="69.036155"/>
     <use style="fill:#95a3c3;fill-opacity:0.5;stroke:#95a3c3;stroke-opacity:0.5;" x="90.265" xlink:href="#m1cc2bea652" y="59.822595"/>
     <use style="fill:#95a3c3;fill-opacity:0.5;stroke:#95a3c3;stroke-opacity:0.5;" x="90.265" xlink:href="#m1cc2bea652" y="67.193443"/>
     <use style="fill:#95a3c3;fill-opacity:0.5;stroke:#95a3c3;stroke-opacity:0.5;" x="90.265" xlink:href="#m1cc2bea652" y="71.800222"/>
     <use style="fill:#95a3c3;fill-opacity:0.5;stroke:#95a3c3;stroke-opacity:0.5;" x="90.265" xlink:href="#m1cc2bea652" y="64.429375"/>
     <use style="fill:#95a3c3;fill-opacity:0.5;stroke:#95a3c3;stroke-opacity:0.5;" x="90.265" xlink:href="#m1cc2bea652" y="70.878867"/>
     <use style="fill:#95a3c3;fill-opacity:0.5;stroke:#95a3c3;stroke-opacity:0.5;" x="90.265" xlink:href="#m1cc2bea652" y="60.743951"/>
     <use style="fill:#95a3c3;fill-opacity:0.5;stroke:#95a3c3;stroke-opacity:0.5;" x="90.265" xlink:href="#m1cc2bea652" y="56.137172"/>
     <use style="fill:#95a3c3;fill-opacity:0.5;stroke:#95a3c3;stroke-opacity:0.5;" x="90.265" xlink:href="#m1cc2bea652" y="65.350731"/>
     <use style="fill:#95a3c3;fill-opacity:0.5;stroke:#95a3c3;stroke-opacity:0.5;" x="90.265" xlink:href="#m1cc2bea652" y="68.114799"/>
     <use style="fill:#95a3c3;fill-opacity:0.5;stroke:#95a3c3;stroke-opacity:0.5;" x="90.265" xlink:href="#m1cc2bea652" y="57.979883"/>
     <use style="fill:#95a3c3;fill-opacity:0.5;stroke:#95a3c3;stroke-opacity:0.5;" x="90.265" xlink:href="#m1cc2bea652" y="69.957511"/>
     <use style="fill:#95a3c3;fill-opacity:0.5;stroke:#95a3c3;stroke-opacity:0.5;" x="90.265" xlink:href="#m1cc2bea652" y="68.114799"/>
     <use style="fill:#95a3c3;fill-opacity:0.5;stroke:#95a3c3;stroke-opacity:0.5;" x="90.265" xlink:href="#m1cc2bea652" y="74.56429"/>
     <use style="fill:#95a3c3;fill-opacity:0.5;stroke:#95a3c3;stroke-opacity:0.5;" x="90.265" xlink:href="#m1cc2bea652" y="55.215816"/>
     <use style="fill:#95a3c3;fill-opacity:0.5;stroke:#95a3c3;stroke-opacity:0.5;" x="90.265" xlink:href="#m1cc2bea652" y="70.878867"/>
     <use style="fill:#95a3c3;fill-opacity:0.5;stroke:#95a3c3;stroke-opacity:0.5;" x="90.265" xlink:href="#m1cc2bea652" y="64.429375"/>
    </g>
   </g>
   <g id="line2d_15">
    <path clip-path="url(#p439ee2ebb3)" d="M 62.365 46.923612 
L 62.365 46.923612 
L 83.29 46.923612 
L 83.29 46.923612 
" style="fill:none;stroke:#000000;stroke-linecap:round;stroke-width:0.5;"/>
   </g>
   <g id="line2d_16">
    <path clip-path="url(#p439ee2ebb3)" d="M 41.44 100.362256 
L 69.34 100.362256 
" style="fill:none;stroke:#808080;stroke-linecap:round;stroke-width:1.2;"/>
   </g>
   <g id="line2d_17">
    <path clip-path="url(#p439ee2ebb3)" d="M 76.315 98.519544 
L 104.215 98.519544 
" style="fill:none;stroke:#95a3c3;stroke-linecap:round;stroke-width:1.2;"/>
   </g>
   <g id="patch_5">
    <path d="M 37.9525 118.789375 
L 37.9525 10.069375 
" style="fill:none;stroke:#000000;stroke-linecap:square;stroke-linejoin:miter;stroke-width:0.5;"/>
   </g>
   <g id="patch_6">
    <path d="M 107.7025 118.789375 
L 107.7025 10.069375 
" style="fill:none;stroke:#000000;stroke-linecap:square;stroke-linejoin:miter;stroke-width:0.5;"/>
   </g>
   <g id="patch_7">
    <path d="M 37.9525 118.789375 
L 107.7025 118.789375 
" style="fill:none;stroke:#000000;stroke-linecap:square;stroke-linejoin:miter;stroke-width:0.5;"/>
   </g>
   <g id="patch_8">
    <path d="M 37.9525 10.069375 
L 107.7025 10.069375 
" style="fill:none;stroke:#000000;stroke-linecap:square;stroke-linejoin:miter;stroke-width:0.5;"/>
   </g>
   <g id="text_10">
    <!-- 787 -->
    <g style="fill:#808080;" transform="translate(48.716875 112.550498)scale(0.08 -0.08)">
     <defs>
      <path d="M 3347 4400 
L 3347 3909 
Q 3131 3700 2773 3181 
Q 2416 2663 2141 2063 
Q 1869 1478 1728 997 
Q 1638 688 1494 0 
L 872 0 
Q 1084 1281 1809 2550 
Q 2238 3294 2709 3834 
L 234 3834 
L 234 4400 
L 3347 4400 
z
" id="Helvetica-37" transform="scale(0.015625)"/>
     </defs>
     <use xlink:href="#Helvetica-37"/>
     <use x="55.615234" xlink:href="#Helvetica-38"/>
     <use x="111.230469" xlink:href="#Helvetica-37"/>
    </g>
   </g>
   <g id="text_11">
    <!-- 1003 -->
    <g style="fill:#8da0cb;" transform="translate(81.3675 112.550498)scale(0.08 -0.08)">
     <defs>
      <path d="M 1663 -122 
Q 869 -122 511 314 
Q 153 750 153 1375 
L 741 1375 
Q 778 941 903 744 
Q 1122 391 1694 391 
Q 2138 391 2406 628 
Q 2675 866 2675 1241 
Q 2675 1703 2392 1887 
Q 2109 2072 1606 2072 
Q 1550 2072 1492 2070 
Q 1434 2069 1375 2066 
L 1375 2563 
Q 1463 2553 1522 2550 
Q 1581 2547 1650 2547 
Q 1966 2547 2169 2647 
Q 2525 2822 2525 3272 
Q 2525 3606 2287 3787 
Q 2050 3969 1734 3969 
Q 1172 3969 956 3594 
Q 838 3388 822 3006 
L 266 3006 
Q 266 3506 466 3856 
Q 809 4481 1675 4481 
Q 2359 4481 2734 4176 
Q 3109 3872 3109 3294 
Q 3109 2881 2888 2625 
Q 2750 2466 2531 2375 
Q 2884 2278 3082 2001 
Q 3281 1725 3281 1325 
Q 3281 684 2859 281 
Q 2438 -122 1663 -122 
z
" id="Helvetica-33" transform="scale(0.015625)"/>
     </defs>
     <use xlink:href="#Helvetica-31"/>
     <use x="55.615234" xlink:href="#Helvetica-30"/>
     <use x="111.230469" xlink:href="#Helvetica-30"/>
     <use x="166.845703" xlink:href="#Helvetica-33"/>
    </g>
   </g>
   <g id="text_12">
    <!-- ** -->
    <g transform="translate(69.71375 45.256112)scale(0.08 -0.08)">
     <defs>
      <path d="M 1406 4591 
L 1406 3894 
L 2088 4131 
L 2213 3784 
L 1531 3563 
L 1953 2975 
L 1644 2753 
L 1234 3363 
L 822 2753 
L 503 2975 
L 931 3563 
L 244 3784 
L 369 4131 
L 1044 3888 
L 1044 4591 
L 1406 4591 
z
" id="Helvetica-2a" transform="scale(0.015625)"/>
     </defs>
     <use xlink:href="#Helvetica-2a"/>
     <use x="38.916016" xlink:href="#Helvetica-2a"/>
    </g>
   </g>
  </g>
 </g>
 <defs>
  <clipPath id="p439ee2ebb3">
   <rect height="108.72" width="69.75" x="37.9525" y="10.069375"/>
  </clipPath>
 </defs>
</svg>
