<?xml version="1.0" encoding="utf-8" standalone="no"?>
<!DOCTYPE svg PUBLIC "-//W3C//DTD SVG 1.1//EN"
  "http://www.w3.org/Graphics/SVG/1.1/DTD/svg11.dtd">
<svg height="120.7525pt" version="1.1" viewBox="0 0 282.13125 120.7525" width="282.13125pt" xmlns="http://www.w3.org/2000/svg" xmlns:xlink="http://www.w3.org/1999/xlink">
 <metadata>
  <rdf:RDF xmlns:cc="http://creativecommons.org/ns#" xmlns:dc="http://purl.org/dc/elements/1.1/" xmlns:rdf="http://www.w3.org/1999/02/22-rdf-syntax-ns#">
   <cc:Work>
    <dc:type rdf:resource="http://purl.org/dc/dcmitype/StillImage"/>
    <dc:date>2021-11-02T12:03:15.535253</dc:date>
    <dc:format>image/svg+xml</dc:format>
    <dc:creator>
     <cc:Agent>
      <dc:title>Matplotlib v3.4.3, https://matplotlib.org/</dc:title>
     </cc:Agent>
    </dc:creator>
   </cc:Work>
  </rdf:RDF>
 </metadata>
 <defs>
  <style type="text/css">*{stroke-linecap:butt;stroke-linejoin:round;}</style>
 </defs>
 <g id="figure_1">
  <g id="patch_1">
   <path d="M 0 120.7525 
L 282.13125 120.7525 
L 282.13125 0 
L 0 0 
z
" style="fill:#ffffff;"/>
  </g>
  <g id="axes_1">
   <g id="patch_2">
    <path d="M 40.24125 88.74 
L 151.84125 88.74 
L 151.84125 7.2 
L 40.24125 7.2 
z
" style="fill:#ffffff;"/>
   </g>
   <g id="matplotlib.axis_1">
    <g id="xtick_1">
     <g id="line2d_1">
      <defs>
       <path d="M 0 0 
L 0 3 
" id="m59778c1876" style="stroke:#262626;"/>
      </defs>
      <g>
       <use style="fill:#262626;stroke:#262626;" x="51.279127" xlink:href="#m59778c1876" y="88.74"/>
      </g>
     </g>
     <g id="text_1">
      <!-- 0 -->
      <g style="fill:#262626;" transform="translate(49.054752 100.47875)scale(0.08 -0.08)">
       <defs>
        <path d="M 1731 4475 
Q 2600 4475 2988 3759 
Q 3288 3206 3288 2244 
Q 3288 1331 3016 734 
Q 2622 -122 1728 -122 
Q 922 -122 528 578 
Q 200 1163 200 2147 
Q 200 2909 397 3456 
Q 766 4475 1731 4475 
z
M 1725 391 
Q 2163 391 2422 778 
Q 2681 1166 2681 2222 
Q 2681 2984 2493 3476 
Q 2306 3969 1766 3969 
Q 1269 3969 1039 3501 
Q 809 3034 809 2125 
Q 809 1441 956 1025 
Q 1181 391 1725 391 
z
" id="Helvetica-30" transform="scale(0.015625)"/>
       </defs>
       <use xlink:href="#Helvetica-30"/>
      </g>
     </g>
    </g>
    <g id="xtick_2">
     <g id="line2d_2">
      <g>
       <use style="fill:#262626;stroke:#262626;" x="102.729843" xlink:href="#m59778c1876" y="88.74"/>
      </g>
     </g>
     <g id="text_2">
      <!-- 50 -->
      <g style="fill:#262626;" transform="translate(98.281093 100.47875)scale(0.08 -0.08)">
       <defs>
        <path d="M 791 1141 
Q 847 659 1238 475 
Q 1438 381 1700 381 
Q 2200 381 2440 700 
Q 2681 1019 2681 1406 
Q 2681 1875 2395 2131 
Q 2109 2388 1709 2388 
Q 1419 2388 1211 2275 
Q 1003 2163 856 1963 
L 369 1991 
L 709 4400 
L 3034 4400 
L 3034 3856 
L 1131 3856 
L 941 2613 
Q 1097 2731 1238 2791 
Q 1488 2894 1816 2894 
Q 2431 2894 2859 2497 
Q 3288 2100 3288 1491 
Q 3288 856 2895 371 
Q 2503 -113 1644 -113 
Q 1097 -113 676 195 
Q 256 503 206 1141 
L 791 1141 
z
" id="Helvetica-35" transform="scale(0.015625)"/>
       </defs>
       <use xlink:href="#Helvetica-35"/>
       <use x="55.615234" xlink:href="#Helvetica-30"/>
      </g>
     </g>
    </g>
    <g id="text_3">
     <!-- Total motifs -->
     <g style="fill:#262626;" transform="translate(75.370625 111.885)scale(0.08 -0.08)">
      <defs>
       <path d="M 3828 4591 
L 3828 4044 
L 2281 4044 
L 2281 0 
L 1650 0 
L 1650 4044 
L 103 4044 
L 103 4591 
L 3828 4591 
z
" id="Helvetica-54" transform="scale(0.015625)"/>
       <path d="M 1741 363 
Q 2300 363 2508 786 
Q 2716 1209 2716 1728 
Q 2716 2197 2566 2491 
Q 2328 2953 1747 2953 
Q 1231 2953 997 2559 
Q 763 2166 763 1609 
Q 763 1075 997 719 
Q 1231 363 1741 363 
z
M 1763 3444 
Q 2409 3444 2856 3012 
Q 3303 2581 3303 1744 
Q 3303 934 2909 406 
Q 2516 -122 1688 -122 
Q 997 -122 590 345 
Q 184 813 184 1600 
Q 184 2444 612 2944 
Q 1041 3444 1763 3444 
z
M 1744 3428 
L 1744 3428 
z
" id="Helvetica-6f" transform="scale(0.015625)"/>
       <path d="M 525 4281 
L 1094 4281 
L 1094 3347 
L 1628 3347 
L 1628 2888 
L 1094 2888 
L 1094 703 
Q 1094 528 1213 469 
Q 1278 434 1431 434 
Q 1472 434 1519 436 
Q 1566 438 1628 444 
L 1628 0 
Q 1531 -28 1426 -40 
Q 1322 -53 1200 -53 
Q 806 -53 665 148 
Q 525 350 525 672 
L 525 2888 
L 72 2888 
L 72 3347 
L 525 3347 
L 525 4281 
z
" id="Helvetica-74" transform="scale(0.015625)"/>
       <path d="M 844 891 
Q 844 647 1022 506 
Q 1200 366 1444 366 
Q 1741 366 2019 503 
Q 2488 731 2488 1250 
L 2488 1703 
Q 2384 1638 2221 1594 
Q 2059 1550 1903 1531 
L 1563 1488 
Q 1256 1447 1103 1359 
Q 844 1213 844 891 
z
M 2206 2028 
Q 2400 2053 2466 2191 
Q 2503 2266 2503 2406 
Q 2503 2694 2298 2823 
Q 2094 2953 1713 2953 
Q 1272 2953 1088 2716 
Q 984 2584 953 2325 
L 428 2325 
Q 444 2944 830 3186 
Q 1216 3428 1725 3428 
Q 2316 3428 2684 3203 
Q 3050 2978 3050 2503 
L 3050 575 
Q 3050 488 3086 434 
Q 3122 381 3238 381 
Q 3275 381 3322 386 
Q 3369 391 3422 400 
L 3422 -16 
Q 3291 -53 3222 -62 
Q 3153 -72 3034 -72 
Q 2744 -72 2613 134 
Q 2544 244 2516 444 
Q 2344 219 2022 53 
Q 1700 -113 1313 -113 
Q 847 -113 551 170 
Q 256 453 256 878 
Q 256 1344 547 1600 
Q 838 1856 1309 1916 
L 2206 2028 
z
M 1741 3428 
L 1741 3428 
z
" id="Helvetica-61" transform="scale(0.015625)"/>
       <path d="M 428 4591 
L 991 4591 
L 991 0 
L 428 0 
L 428 4591 
z
" id="Helvetica-6c" transform="scale(0.015625)"/>
       <path id="Helvetica-20" transform="scale(0.015625)"/>
       <path d="M 413 3347 
L 969 3347 
L 969 2872 
Q 1169 3119 1331 3231 
Q 1609 3422 1963 3422 
Q 2363 3422 2606 3225 
Q 2744 3113 2856 2894 
Q 3044 3163 3297 3292 
Q 3550 3422 3866 3422 
Q 4541 3422 4784 2934 
Q 4916 2672 4916 2228 
L 4916 0 
L 4331 0 
L 4331 2325 
Q 4331 2659 4164 2784 
Q 3997 2909 3756 2909 
Q 3425 2909 3186 2687 
Q 2947 2466 2947 1947 
L 2947 0 
L 2375 0 
L 2375 2184 
Q 2375 2525 2294 2681 
Q 2166 2916 1816 2916 
Q 1497 2916 1236 2669 
Q 975 2422 975 1775 
L 975 0 
L 413 0 
L 413 3347 
z
" id="Helvetica-6d" transform="scale(0.015625)"/>
       <path d="M 413 3331 
L 984 3331 
L 984 0 
L 413 0 
L 413 3331 
z
M 413 4591 
L 984 4591 
L 984 3953 
L 413 3953 
L 413 4591 
z
" id="Helvetica-69" transform="scale(0.015625)"/>
       <path d="M 553 3856 
Q 566 4206 675 4369 
Q 872 4656 1434 4656 
Q 1488 4656 1544 4653 
Q 1600 4650 1672 4644 
L 1672 4131 
Q 1584 4138 1545 4139 
Q 1506 4141 1472 4141 
Q 1216 4141 1166 4008 
Q 1116 3875 1116 3331 
L 1672 3331 
L 1672 2888 
L 1109 2888 
L 1109 0 
L 553 0 
L 553 2888 
L 88 2888 
L 88 3331 
L 553 3331 
L 553 3856 
z
" id="Helvetica-66" transform="scale(0.015625)"/>
       <path d="M 747 1050 
Q 772 769 888 619 
Q 1100 347 1625 347 
Q 1938 347 2175 483 
Q 2413 619 2413 903 
Q 2413 1119 2222 1231 
Q 2100 1300 1741 1391 
L 1294 1503 
Q 866 1609 663 1741 
Q 300 1969 300 2372 
Q 300 2847 642 3140 
Q 984 3434 1563 3434 
Q 2319 3434 2653 2991 
Q 2863 2709 2856 2384 
L 2325 2384 
Q 2309 2575 2191 2731 
Q 1997 2953 1519 2953 
Q 1200 2953 1036 2831 
Q 872 2709 872 2509 
Q 872 2291 1088 2159 
Q 1213 2081 1456 2022 
L 1828 1931 
Q 2434 1784 2641 1647 
Q 2969 1431 2969 969 
Q 2969 522 2630 197 
Q 2291 -128 1597 -128 
Q 850 -128 539 211 
Q 228 550 206 1050 
L 747 1050 
z
M 1578 3428 
L 1578 3428 
z
" id="Helvetica-73" transform="scale(0.015625)"/>
      </defs>
      <use xlink:href="#Helvetica-54"/>
      <use x="61.083984" xlink:href="#Helvetica-6f"/>
      <use x="116.699219" xlink:href="#Helvetica-74"/>
      <use x="144.482422" xlink:href="#Helvetica-61"/>
      <use x="200.097656" xlink:href="#Helvetica-6c"/>
      <use x="222.314453" xlink:href="#Helvetica-20"/>
      <use x="250.097656" xlink:href="#Helvetica-6d"/>
      <use x="333.398438" xlink:href="#Helvetica-6f"/>
      <use x="389.013672" xlink:href="#Helvetica-74"/>
      <use x="416.796875" xlink:href="#Helvetica-69"/>
      <use x="439.013672" xlink:href="#Helvetica-66"/>
      <use x="466.796875" xlink:href="#Helvetica-73"/>
     </g>
    </g>
   </g>
   <g id="matplotlib.axis_2">
    <g id="ytick_1">
     <g id="line2d_3">
      <defs>
       <path d="M 0 0 
L -3 0 
" id="m54aedda1c1" style="stroke:#262626;"/>
      </defs>
      <g>
       <use style="fill:#262626;stroke:#262626;" x="40.24125" xlink:href="#m54aedda1c1" y="88.74"/>
      </g>
     </g>
     <g id="text_4">
      <!-- 0.00 -->
      <g style="fill:#262626;" transform="translate(18.6725 91.609375)scale(0.08 -0.08)">
       <defs>
        <path d="M 547 681 
L 1200 681 
L 1200 0 
L 547 0 
L 547 681 
z
" id="Helvetica-2e" transform="scale(0.015625)"/>
       </defs>
       <use xlink:href="#Helvetica-30"/>
       <use x="55.615234" xlink:href="#Helvetica-2e"/>
       <use x="83.398438" xlink:href="#Helvetica-30"/>
       <use x="139.013672" xlink:href="#Helvetica-30"/>
      </g>
     </g>
    </g>
    <g id="ytick_2">
     <g id="line2d_4">
      <g>
       <use style="fill:#262626;stroke:#262626;" x="40.24125" xlink:href="#m54aedda1c1" y="65.582426"/>
      </g>
     </g>
     <g id="text_5">
      <!-- 0.05 -->
      <g style="fill:#262626;" transform="translate(18.6725 68.451801)scale(0.08 -0.08)">
       <use xlink:href="#Helvetica-30"/>
       <use x="55.615234" xlink:href="#Helvetica-2e"/>
       <use x="83.398438" xlink:href="#Helvetica-30"/>
       <use x="139.013672" xlink:href="#Helvetica-35"/>
      </g>
     </g>
    </g>
    <g id="ytick_3">
     <g id="line2d_5">
      <g>
       <use style="fill:#262626;stroke:#262626;" x="40.24125" xlink:href="#m54aedda1c1" y="42.424852"/>
      </g>
     </g>
     <g id="text_6">
      <!-- 0.10 -->
      <g style="fill:#262626;" transform="translate(18.6725 45.294227)scale(0.08 -0.08)">
       <defs>
        <path d="M 613 3169 
L 613 3600 
Q 1222 3659 1462 3798 
Q 1703 3938 1822 4456 
L 2266 4456 
L 2266 0 
L 1666 0 
L 1666 3169 
L 613 3169 
z
" id="Helvetica-31" transform="scale(0.015625)"/>
       </defs>
       <use xlink:href="#Helvetica-30"/>
       <use x="55.615234" xlink:href="#Helvetica-2e"/>
       <use x="83.398438" xlink:href="#Helvetica-31"/>
       <use x="139.013672" xlink:href="#Helvetica-30"/>
      </g>
     </g>
    </g>
    <g id="ytick_4">
     <g id="line2d_6">
      <g>
       <use style="fill:#262626;stroke:#262626;" x="40.24125" xlink:href="#m54aedda1c1" y="19.267278"/>
      </g>
     </g>
     <g id="text_7">
      <!-- 0.15 -->
      <g style="fill:#262626;" transform="translate(18.6725 22.136653)scale(0.08 -0.08)">
       <use xlink:href="#Helvetica-30"/>
       <use x="55.615234" xlink:href="#Helvetica-2e"/>
       <use x="83.398438" xlink:href="#Helvetica-31"/>
       <use x="139.013672" xlink:href="#Helvetica-35"/>
      </g>
     </g>
    </g>
    <g id="text_8">
     <!-- density -->
     <g style="fill:#262626;" transform="translate(12.9575 60.643125)rotate(-90)scale(0.08 -0.08)">
      <defs>
       <path d="M 769 1634 
Q 769 1097 997 734 
Q 1225 372 1728 372 
Q 2119 372 2370 708 
Q 2622 1044 2622 1672 
Q 2622 2306 2362 2611 
Q 2103 2916 1722 2916 
Q 1297 2916 1033 2591 
Q 769 2266 769 1634 
z
M 1616 3406 
Q 2000 3406 2259 3244 
Q 2409 3150 2600 2916 
L 2600 4606 
L 3141 4606 
L 3141 0 
L 2634 0 
L 2634 466 
Q 2438 156 2169 18 
Q 1900 -119 1553 -119 
Q 994 -119 584 351 
Q 175 822 175 1603 
Q 175 2334 548 2870 
Q 922 3406 1616 3406 
z
" id="Helvetica-64" transform="scale(0.015625)"/>
       <path d="M 1806 3422 
Q 2163 3422 2497 3255 
Q 2831 3088 3006 2822 
Q 3175 2569 3231 2231 
Q 3281 2000 3281 1494 
L 828 1494 
Q 844 984 1069 676 
Q 1294 369 1766 369 
Q 2206 369 2469 659 
Q 2619 828 2681 1050 
L 3234 1050 
Q 3213 866 3089 639 
Q 2966 413 2813 269 
Q 2556 19 2178 -69 
Q 1975 -119 1719 -119 
Q 1094 -119 659 336 
Q 225 791 225 1609 
Q 225 2416 662 2919 
Q 1100 3422 1806 3422 
z
M 2703 1941 
Q 2669 2306 2544 2525 
Q 2313 2931 1772 2931 
Q 1384 2931 1121 2651 
Q 859 2372 844 1941 
L 2703 1941 
z
M 1753 3428 
L 1753 3428 
z
" id="Helvetica-65" transform="scale(0.015625)"/>
       <path d="M 413 3347 
L 947 3347 
L 947 2872 
Q 1184 3166 1450 3294 
Q 1716 3422 2041 3422 
Q 2753 3422 3003 2925 
Q 3141 2653 3141 2147 
L 3141 0 
L 2569 0 
L 2569 2109 
Q 2569 2416 2478 2603 
Q 2328 2916 1934 2916 
Q 1734 2916 1606 2875 
Q 1375 2806 1200 2600 
Q 1059 2434 1017 2257 
Q 975 2081 975 1753 
L 975 0 
L 413 0 
L 413 3347 
z
M 1734 3428 
L 1734 3428 
z
" id="Helvetica-6e" transform="scale(0.015625)"/>
       <path d="M 2503 3347 
L 3125 3347 
Q 3006 3025 2597 1878 
Q 2291 1016 2084 472 
Q 1597 -809 1397 -1090 
Q 1197 -1372 709 -1372 
Q 591 -1372 527 -1362 
Q 463 -1353 369 -1328 
L 369 -816 
Q 516 -856 581 -865 
Q 647 -875 697 -875 
Q 853 -875 926 -823 
Q 1000 -772 1050 -697 
Q 1066 -672 1162 -440 
Q 1259 -209 1303 -97 
L 66 3347 
L 703 3347 
L 1600 622 
L 2503 3347 
z
M 1597 3428 
L 1597 3428 
z
" id="Helvetica-79" transform="scale(0.015625)"/>
      </defs>
      <use xlink:href="#Helvetica-64"/>
      <use x="55.615234" xlink:href="#Helvetica-65"/>
      <use x="111.230469" xlink:href="#Helvetica-6e"/>
      <use x="166.845703" xlink:href="#Helvetica-73"/>
      <use x="216.845703" xlink:href="#Helvetica-69"/>
      <use x="239.0625" xlink:href="#Helvetica-74"/>
      <use x="266.845703" xlink:href="#Helvetica-79"/>
     </g>
    </g>
   </g>
   <g id="line2d_7">
    <path clip-path="url(#p7290e7d5eb)" d="M 47.41882 88.187058 
L 47.685138 87.726441 
L 47.951456 86.957926 
L 48.217774 85.733897 
L 48.484092 83.873761 
L 49.016727 77.456175 
L 49.549363 66.451366 
L 50.348316 42.461746 
L 51.14727 19.460354 
L 51.413588 14.600509 
L 51.679905 11.779815 
L 51.946223 11.082857 
L 52.212541 12.383823 
L 52.478859 15.386203 
L 53.011494 24.837153 
L 54.343083 51.106711 
L 55.142037 61.393809 
L 55.674672 65.748937 
L 56.207308 68.658928 
L 57.006262 71.496425 
L 58.604168 75.817244 
L 59.66944 78.207459 
L 60.468393 79.343438 
L 61.267346 79.990211 
L 63.131571 81.268867 
L 66.327385 83.898962 
L 67.658974 85.144107 
L 68.457927 85.586753 
L 69.523198 85.869934 
L 70.854788 85.95294 
L 71.920059 86.02328 
L 72.719012 86.315313 
L 75.115872 87.558624 
L 76.447461 87.828411 
L 78.311686 87.939693 
L 80.175911 88.053409 
L 83.638042 88.549884 
L 100.416064 88.739222 
L 100.416064 88.739222 
" style="fill:none;stroke:#808080;stroke-linecap:round;stroke-width:1.2;"/>
   </g>
   <g id="line2d_8">
    <path clip-path="url(#p7290e7d5eb)" d="M 45.313977 88.449835 
L 45.823799 88.123835 
L 46.333621 87.511713 
L 46.843443 86.440502 
L 47.353265 84.69508 
L 47.863086 82.050632 
L 48.372908 78.332067 
L 49.392552 67.682774 
L 50.922017 49.273909 
L 51.431839 44.999663 
L 51.941661 42.556399 
L 52.451483 42.095689 
L 52.961305 43.449804 
L 53.471127 46.203193 
L 56.020236 64.282167 
L 57.03988 69.116164 
L 58.059523 72.511223 
L 59.079167 74.851448 
L 60.098811 76.393186 
L 61.118454 77.383904 
L 62.64792 78.388749 
L 64.687207 79.713593 
L 68.25596 82.230366 
L 70.805069 83.568801 
L 75.393466 85.83543 
L 77.432753 86.589186 
L 80.491684 87.43129 
L 82.530971 87.787893 
L 85.589902 87.983941 
L 89.158655 88.007937 
L 91.707764 88.149886 
L 94.766695 88.358176 
L 97.315805 88.237578 
L 99.864914 88.210895 
L 111.080994 88.674536 
L 120.767609 88.702553 
L 146.768523 88.739571 
L 146.768523 88.739571 
" style="fill:none;stroke:#8da0cb;stroke-linecap:round;stroke-width:1.2;"/>
   </g>
   <g id="line2d_9">
    <path clip-path="url(#p7290e7d5eb)" d="M 55.350403 88.74 
L 55.350403 7.2 
" style="fill:none;stroke:#808080;stroke-dasharray:4.44,1.92;stroke-dashoffset:0;stroke-width:1.2;"/>
   </g>
   <g id="line2d_10">
    <path clip-path="url(#p7290e7d5eb)" d="M 58.186267 88.74 
L 58.186267 7.2 
" style="fill:none;stroke:#8da0cb;stroke-dasharray:4.44,1.92;stroke-dashoffset:0;stroke-width:1.2;"/>
   </g>
   <g id="patch_3">
    <path d="M 40.24125 88.74 
L 40.24125 7.2 
" style="fill:none;stroke:#000000;stroke-linecap:square;stroke-linejoin:miter;stroke-width:0.5;"/>
   </g>
   <g id="patch_4">
    <path d="M 151.84125 88.74 
L 151.84125 7.2 
" style="fill:none;stroke:#000000;stroke-linecap:square;stroke-linejoin:miter;stroke-width:0.5;"/>
   </g>
   <g id="patch_5">
    <path d="M 40.24125 88.74 
L 151.84125 88.74 
" style="fill:none;stroke:#000000;stroke-linecap:square;stroke-linejoin:miter;stroke-width:0.5;"/>
   </g>
   <g id="patch_6">
    <path d="M 40.24125 7.2 
L 151.84125 7.2 
" style="fill:none;stroke:#000000;stroke-linecap:square;stroke-linejoin:miter;stroke-width:0.5;"/>
   </g>
   <g id="legend_1">
    <g id="patch_7">
     <path d="M 163.02125 36.6 
L 273.33125 36.6 
Q 274.93125 36.6 274.93125 35 
L 274.93125 12.8 
Q 274.93125 11.2 273.33125 11.2 
L 163.02125 11.2 
Q 161.42125 11.2 161.42125 12.8 
L 161.42125 35 
Q 161.42125 36.6 163.02125 36.6 
z
" style="fill:#ffffff;opacity:0.8;stroke:#cccccc;stroke-linejoin:miter;stroke-width:0.8;"/>
    </g>
    <g id="line2d_11">
     <path d="M 164.62125 17.4325 
L 180.62125 17.4325 
" style="fill:none;stroke:#808080;stroke-linecap:round;stroke-width:1.2;"/>
    </g>
    <g id="line2d_12"/>
    <g id="text_9">
     <!-- Not Repetitive (n=2114) -->
     <g style="fill:#262626;" transform="translate(187.02125 20.2325)scale(0.08 -0.08)">
      <defs>
       <path d="M 488 4591 
L 1222 4591 
L 3541 872 
L 3541 4591 
L 4131 4591 
L 4131 0 
L 3434 0 
L 1081 3716 
L 1081 0 
L 488 0 
L 488 4591 
z
M 2269 4591 
L 2269 4591 
z
" id="Helvetica-4e" transform="scale(0.015625)"/>
       <path d="M 2622 2488 
Q 3059 2488 3314 2663 
Q 3569 2838 3569 3294 
Q 3569 3784 3213 3963 
Q 3022 4056 2703 4056 
L 1184 4056 
L 1184 2488 
L 2622 2488 
z
M 563 4591 
L 2688 4591 
Q 3213 4591 3553 4438 
Q 4200 4144 4200 3353 
Q 4200 2941 4029 2678 
Q 3859 2416 3553 2256 
Q 3822 2147 3958 1969 
Q 4094 1791 4109 1391 
L 4131 775 
Q 4141 513 4175 384 
Q 4231 166 4375 103 
L 4375 0 
L 3613 0 
Q 3581 59 3562 153 
Q 3544 247 3531 516 
L 3494 1281 
Q 3472 1731 3159 1884 
Q 2981 1969 2600 1969 
L 1184 1969 
L 1184 0 
L 563 0 
L 563 4591 
z
" id="Helvetica-52" transform="scale(0.015625)"/>
       <path d="M 1825 378 
Q 2219 378 2480 708 
Q 2741 1038 2741 1694 
Q 2741 2094 2625 2381 
Q 2406 2934 1825 2934 
Q 1241 2934 1025 2350 
Q 909 2038 909 1556 
Q 909 1169 1025 897 
Q 1244 378 1825 378 
z
M 369 3331 
L 916 3331 
L 916 2888 
Q 1084 3116 1284 3241 
Q 1569 3428 1953 3428 
Q 2522 3428 2919 2992 
Q 3316 2556 3316 1747 
Q 3316 653 2744 184 
Q 2381 -113 1900 -113 
Q 1522 -113 1266 53 
Q 1116 147 931 375 
L 931 -1334 
L 369 -1334 
L 369 3331 
z
" id="Helvetica-70" transform="scale(0.015625)"/>
       <path d="M 688 3347 
L 1581 622 
L 2516 3347 
L 3131 3347 
L 1869 0 
L 1269 0 
L 34 3347 
L 688 3347 
z
" id="Helvetica-76" transform="scale(0.015625)"/>
       <path d="M 1894 4666 
Q 1403 3713 1256 3263 
Q 1034 2578 1034 1681 
Q 1034 775 1288 25 
Q 1444 -438 1903 -1306 
L 1525 -1306 
Q 1069 -594 959 -397 
Q 850 -200 722 138 
Q 547 600 478 1125 
Q 444 1397 444 1644 
Q 444 2569 734 3291 
Q 919 3750 1503 4666 
L 1894 4666 
z
" id="Helvetica-28" transform="scale(0.015625)"/>
       <path d="M 3547 2569 
L 3547 2044 
L 288 2044 
L 288 2569 
L 3547 2569 
z
M 3547 1228 
L 3547 694 
L 288 694 
L 288 1228 
L 3547 1228 
z
" id="Helvetica-3d" transform="scale(0.015625)"/>
       <path d="M 200 0 
Q 231 578 439 1006 
Q 647 1434 1250 1784 
L 1850 2131 
Q 2253 2366 2416 2531 
Q 2672 2791 2672 3125 
Q 2672 3516 2437 3745 
Q 2203 3975 1813 3975 
Q 1234 3975 1013 3538 
Q 894 3303 881 2888 
L 309 2888 
Q 319 3472 525 3841 
Q 891 4491 1816 4491 
Q 2584 4491 2939 4075 
Q 3294 3659 3294 3150 
Q 3294 2613 2916 2231 
Q 2697 2009 2131 1694 
L 1703 1456 
Q 1397 1288 1222 1134 
Q 909 863 828 531 
L 3272 531 
L 3272 0 
L 200 0 
z
" id="Helvetica-32" transform="scale(0.015625)"/>
       <path d="M 2116 1584 
L 2116 3613 
L 681 1584 
L 2116 1584 
z
M 2125 0 
L 2125 1094 
L 163 1094 
L 163 1644 
L 2213 4488 
L 2688 4488 
L 2688 1584 
L 3347 1584 
L 3347 1094 
L 2688 1094 
L 2688 0 
L 2125 0 
z
" id="Helvetica-34" transform="scale(0.015625)"/>
       <path d="M 222 -1306 
Q 719 -338 863 106 
Q 1081 778 1081 1681 
Q 1081 2584 828 3334 
Q 672 3797 213 4666 
L 591 4666 
Q 1072 3897 1173 3717 
Q 1275 3538 1394 3222 
Q 1544 2831 1608 2450 
Q 1672 2069 1672 1716 
Q 1672 791 1378 66 
Q 1194 -400 613 -1306 
L 222 -1306 
z
" id="Helvetica-29" transform="scale(0.015625)"/>
      </defs>
      <use xlink:href="#Helvetica-4e"/>
      <use x="72.216797" xlink:href="#Helvetica-6f"/>
      <use x="127.832031" xlink:href="#Helvetica-74"/>
      <use x="155.615234" xlink:href="#Helvetica-20"/>
      <use x="183.398438" xlink:href="#Helvetica-52"/>
      <use x="255.615234" xlink:href="#Helvetica-65"/>
      <use x="311.230469" xlink:href="#Helvetica-70"/>
      <use x="366.845703" xlink:href="#Helvetica-65"/>
      <use x="422.460938" xlink:href="#Helvetica-74"/>
      <use x="450.244141" xlink:href="#Helvetica-69"/>
      <use x="472.460938" xlink:href="#Helvetica-74"/>
      <use x="500.244141" xlink:href="#Helvetica-69"/>
      <use x="522.460938" xlink:href="#Helvetica-76"/>
      <use x="572.460938" xlink:href="#Helvetica-65"/>
      <use x="628.076172" xlink:href="#Helvetica-20"/>
      <use x="655.859375" xlink:href="#Helvetica-28"/>
      <use x="689.160156" xlink:href="#Helvetica-6e"/>
      <use x="744.775391" xlink:href="#Helvetica-3d"/>
      <use x="803.173828" xlink:href="#Helvetica-32"/>
      <use x="858.789062" xlink:href="#Helvetica-31"/>
      <use x="914.404297" xlink:href="#Helvetica-31"/>
      <use x="970.019531" xlink:href="#Helvetica-34"/>
      <use x="1025.634766" xlink:href="#Helvetica-29"/>
     </g>
    </g>
    <g id="line2d_13">
     <path d="M 164.62125 28.9325 
L 180.62125 28.9325 
" style="fill:none;stroke:#8da0cb;stroke-linecap:round;stroke-width:1.2;"/>
    </g>
    <g id="line2d_14"/>
    <g id="text_10">
     <!-- Repetitive (n=2479) -->
     <g style="fill:#262626;" transform="translate(187.02125 31.7325)scale(0.08 -0.08)">
      <defs>
       <path d="M 3347 4400 
L 3347 3909 
Q 3131 3700 2773 3181 
Q 2416 2663 2141 2063 
Q 1869 1478 1728 997 
Q 1638 688 1494 0 
L 872 0 
Q 1084 1281 1809 2550 
Q 2238 3294 2709 3834 
L 234 3834 
L 234 4400 
L 3347 4400 
z
" id="Helvetica-37" transform="scale(0.015625)"/>
       <path d="M 850 1081 
Q 875 616 1209 438 
Q 1381 344 1597 344 
Q 2000 344 2284 680 
Q 2569 1016 2688 2044 
Q 2500 1747 2223 1626 
Q 1947 1506 1628 1506 
Q 981 1506 604 1909 
Q 228 2313 228 2947 
Q 228 3556 600 4018 
Q 972 4481 1697 4481 
Q 2675 4481 3047 3600 
Q 3253 3116 3253 2388 
Q 3253 1566 3006 931 
Q 2597 -125 1619 -125 
Q 963 -125 622 219 
Q 281 563 281 1081 
L 850 1081 
z
M 1703 2000 
Q 2038 2000 2314 2220 
Q 2591 2441 2591 2991 
Q 2591 3484 2342 3726 
Q 2094 3969 1709 3969 
Q 1297 3969 1055 3692 
Q 813 3416 813 2953 
Q 813 2516 1025 2258 
Q 1238 2000 1703 2000 
z
" id="Helvetica-39" transform="scale(0.015625)"/>
      </defs>
      <use xlink:href="#Helvetica-52"/>
      <use x="72.216797" xlink:href="#Helvetica-65"/>
      <use x="127.832031" xlink:href="#Helvetica-70"/>
      <use x="183.447266" xlink:href="#Helvetica-65"/>
      <use x="239.0625" xlink:href="#Helvetica-74"/>
      <use x="266.845703" xlink:href="#Helvetica-69"/>
      <use x="289.0625" xlink:href="#Helvetica-74"/>
      <use x="316.845703" xlink:href="#Helvetica-69"/>
      <use x="339.0625" xlink:href="#Helvetica-76"/>
      <use x="389.0625" xlink:href="#Helvetica-65"/>
      <use x="444.677734" xlink:href="#Helvetica-20"/>
      <use x="472.460938" xlink:href="#Helvetica-28"/>
      <use x="505.761719" xlink:href="#Helvetica-6e"/>
      <use x="561.376953" xlink:href="#Helvetica-3d"/>
      <use x="619.775391" xlink:href="#Helvetica-32"/>
      <use x="675.390625" xlink:href="#Helvetica-34"/>
      <use x="731.005859" xlink:href="#Helvetica-37"/>
      <use x="786.621094" xlink:href="#Helvetica-39"/>
      <use x="842.236328" xlink:href="#Helvetica-29"/>
     </g>
    </g>
   </g>
  </g>
 </g>
 <defs>
  <clipPath id="p7290e7d5eb">
   <rect height="81.54" width="111.6" x="40.24125" y="7.2"/>
  </clipPath>
 </defs>
</svg>
